<?xml version="1.0" encoding="UTF-8" standalone="no"?>
<!-- Created with Inkscape (http://www.inkscape.org/) -->

<svg
   xmlns:dc="http://purl.org/dc/elements/1.1/"
   xmlns:cc="http://creativecommons.org/ns#"
   xmlns:rdf="http://www.w3.org/1999/02/22-rdf-syntax-ns#"
   xmlns:svg="http://www.w3.org/2000/svg"
   xmlns="http://www.w3.org/2000/svg"
   xmlns:xlink="http://www.w3.org/1999/xlink"
   xmlns:sodipodi="http://sodipodi.sourceforge.net/DTD/sodipodi-0.dtd"
   xmlns:inkscape="http://www.inkscape.org/namespaces/inkscape"
   width="100"
   height="100"
   viewBox="0 0 10 10"
   version="1.1"
   id="svg8"
   inkscape:version="0.92.5 (2060ec1f9f, 2020-04-08)"
   sodipodi:docname="RoaldDigitalSignatureWhite.svg">
  <defs
     id="defs2">
    <linearGradient
       inkscape:collect="always"
       id="linearGradient1538">
      <stop
         style="stop-color:#fafafa;stop-opacity:1;"
         offset="0"
         id="stop1534" />
      <stop
         style="stop-color:#fafafa;stop-opacity:0;"
         offset="1"
         id="stop1536" />
    </linearGradient>
    <linearGradient
       id="linearGradient4599-9"
       inkscape:collect="always">
      <stop
         id="stop4595"
         offset="0"
         style="stop-color:#000000;stop-opacity:1;" />
      <stop
         id="stop4597"
         offset="1"
         style="stop-color:#030091;stop-opacity:0.99502486" />
    </linearGradient>
    <linearGradient
       gradientUnits="userSpaceOnUse"
       y2="162.51738"
       x2="142.0313"
       y1="133.74548"
       x1="61.486092"
       id="linearGradient4659"
       xlink:href="#linearGradient4599-9"
       inkscape:collect="always" />
    <clipPath
       id="clipPath2564"
       clipPathUnits="userSpaceOnUse">
      <path
         inkscape:connector-curvature="0"
         id="path2566"
         d="M 72.54,579.24 H 539.46 V 342.15 H 72.54 Z" />
    </clipPath>
    <clipPath
       clipPathUnits="userSpaceOnUse"
       id="clipPath18441">
      <path
         d="M 0,600 H 600 V 0 H 0 Z"
         id="path18439"
         inkscape:connector-curvature="0" />
    </clipPath>
    <linearGradient
       inkscape:collect="always"
       xlink:href="#linearGradient1538"
       id="linearGradient1540"
       x1="-395.13489"
       y1="446.12872"
       x2="-389.00655"
       y2="446.12872"
       gradientUnits="userSpaceOnUse" />
    <linearGradient
       inkscape:collect="always"
       xlink:href="#linearGradient1538"
       id="linearGradient1550"
       x1="-407.69263"
       y1="453.21851"
       x2="-375.92668"
       y2="452.80842"
       gradientUnits="userSpaceOnUse" />
  </defs>
  <sodipodi:namedview
     id="base"
     pagecolor="#ffffff"
     bordercolor="#666666"
     borderopacity="1.0"
     inkscape:pageopacity="0.0"
     inkscape:pageshadow="2"
     inkscape:zoom="7.9195959"
     inkscape:cx="60.298163"
     inkscape:cy="51.739796"
     inkscape:document-units="mm"
     inkscape:current-layer="g1207"
     showgrid="false"
     units="px"
     inkscape:window-width="1920"
     inkscape:window-height="1001"
     inkscape:window-x="-9"
     inkscape:window-y="-9"
     inkscape:window-maximized="1" />
  <metadata
     id="metadata5">
    <rdf:RDF>
      <cc:Work
         rdf:about="">
        <dc:format>image/svg+xml</dc:format>
        <dc:type
           rdf:resource="http://purl.org/dc/dcmitype/StillImage" />
        <dc:title></dc:title>
      </cc:Work>
    </rdf:RDF>
  </metadata>
  <g
     inkscape:label="Layer 1"
     inkscape:groupmode="layer"
     id="layer1"
     transform="translate(0,-122.41665)">
    <g
       transform="matrix(0.68572993,0,0,0.68572993,68.792239,-114.21122)"
       id="layer1-26"
       inkscape:label="Layer 1">
      <text
         id="text4613"
         y="290.8194"
         x="191.16452"
         style="font-style:normal;font-weight:normal;font-size:1.41111112px;line-height:1.25;font-family:sans-serif;letter-spacing:0px;word-spacing:0px;fill:#000000;fill-opacity:1;stroke:none;stroke-width:0.26458332"
         xml:space="preserve"><tspan
           style="font-size:1.41111112px;stroke-width:0.26458332"
           y="292.10681"
           x="191.16452"
           id="tspan4611"
           sodipodi:role="line" /></text>
      <g
         transform="matrix(0.41487782,0,0,0.40411774,69.659979,169.1802)"
         id="g4623">
        <g
           id="g1207">
          <path
             inkscape:connector-curvature="0"
             d="m -402.11157,453.8529 c 0.0794,-0.086 0.1538,-0.17569 0.22349,-0.26868 0.0462,-0.0648 0.10229,-0.12073 0.15908,-0.17714 0.059,-0.0497 0.11035,-0.10611 0.16869,-0.15635 0.049,-0.0491 0.1056,-0.092 0.1482,-0.14635 0.0347,-0.0441 0.0802,-0.0799 0.12438,-0.11567 0.0465,-0.0336 0.079,-0.0783 0.11673,-0.11949 0.047,-0.0462 0.0798,-0.10155 0.11967,-0.15256 0.0463,-0.0533 0.0736,-0.11678 0.10485,-0.17795 0.0366,-0.0572 0.0429,-0.12293 0.059,-0.18613 0.0174,-0.0698 0.0446,-0.13665 0.0712,-0.20369 0.0307,-0.0851 0.0425,-0.17475 0.0583,-0.26303 0.0282,-0.13114 0.0569,-0.2624 0.0913,-0.39226 0.0321,-0.10475 0.0478,-0.21234 0.0564,-0.32068 0.0121,-0.0943 0.047,-0.18409 0.0667,-0.27714 0.0225,-0.066 0.0415,-0.13194 0.0509,-0.20066 0.007,-0.0695 0.004,-0.13882 0.0186,-0.20754 0.0191,-0.10197 0.0669,-0.11214 0.19061,-0.16053 0.004,-0.002 0.0594,0.0176 0.0607,0.0181 0.11313,0.0561 0.21366,0.13014 0.31915,0.19727 0.13925,0.0949 0.29446,0.16487 0.45177,0.22925 0.19021,0.0823 0.386,0.15316 0.58484,0.21493 0.17967,0.0529 0.36339,0.0882 0.55031,0.10839 0.13981,0.0126 0.28041,0.013 0.42073,0.0133 0.10293,-1e-4 0.20585,0 0.30876,-0.002 0.083,0.006 0.16358,-0.0126 0.24507,-0.0238 0.0812,-0.018 0.15353,-0.0573 0.23047,-0.0861 0.0452,-0.0279 0.19235,-0.08 -0.0335,0.0206 -0.011,0.005 0.0193,-0.0139 0.029,-0.0208 0.0377,-0.0268 0.0201,-0.0153 0.0599,-0.0389 0.0482,-0.0357 0.0997,-0.071 0.1416,-0.11343 0.0428,-0.0571 0.23249,-0.2167 0.21168,-0.0694 -0.0464,0.12202 -0.0837,0.24675 -0.12687,0.36975 -0.0602,0.17035 -0.13704,0.33475 -0.21016,0.50043 -0.0746,0.18812 -0.16566,0.36993 -0.25501,0.55222 -0.0969,0.18674 -0.19424,0.37262 -0.27677,0.56537 -0.0702,0.1674 -0.14822,0.33175 -0.2215,0.49797 -0.044,0.12556 -0.0893,0.24956 -0.14601,0.37067 -0.0333,0.078 -0.0597,0.15856 -0.0864,0.23874 -0.0142,0.0557 -0.0383,0.1195 0.006,0.1673 0.0836,0.0558 0.19086,0.0579 0.28967,0.0641 0.19337,0.0124 0.38487,-0.017 0.57432,-0.0491 0.20317,-0.0343 0.40136,-0.0868 0.59933,-0.14054 0.25873,-0.0668 0.51461,-0.14223 0.765,-0.23259 0.26214,-0.0992 0.51818,-0.21224 0.76393,-0.343 -0.003,0 -0.012,1.4e-4 -0.009,-0.002 0.0188,-0.0137 0.22143,-0.14355 0.2416,-0.15683 0.12095,-0.0797 0.23443,-0.16599 0.34842,-0.25404 0.20955,-0.17586 0.41067,-0.36052 0.60859,-0.54773 0.15937,-0.16239 0.31039,-0.33094 0.44146,-0.51416 0.12995,-0.16778 0.22268,-0.35725 0.32141,-0.54185 0.0878,-0.15344 0.16555,-0.30938 0.2305,-0.4723 0.0535,-0.12678 0.11248,-0.25129 0.15445,-0.38195 0.0399,-0.12329 0.0834,-0.24562 0.12816,-0.36744 0.0462,-0.11163 0.0815,-0.22433 0.10058,-0.34269 0.0203,-0.0955 0.0396,-0.191 0.0496,-0.28797 0.0156,-0.0761 0.0315,-0.15194 0.0398,-0.22915 0.005,-0.0565 -0.005,-0.12844 0.1349,-0.064 0.0223,0.0103 -0.0102,0.0455 -0.0153,0.0682 -0.006,0.0279 -0.0124,0.0558 -0.0186,0.0837 -0.0424,0.23493 -0.0662,0.47221 -0.10304,0.70795 -0.0556,0.32083 -0.11154,0.64159 -0.16497,0.96274 -0.066,0.39161 -0.1131,0.78571 -0.18509,1.17642 -0.082,0.42776 -0.14835,0.85772 -0.19896,1.28965 -0.0448,0.49968 -0.0676,1.00076 -0.1184,1.50001 -0.0467,0.48293 -0.11401,0.96378 -0.17636,1.4451 -0.0529,0.4471 -0.10595,0.89433 -0.17012,1.34017 -0.0686,0.44371 -0.15191,0.88544 -0.25576,1.32315 -0.0478,0.17954 -0.0929,0.35942 -0.13596,0.53992 -0.0222,0.0879 -0.0385,0.1826 -0.10898,0.24883 -0.0554,0.0284 -0.10793,0.0624 -0.1662,0.0852 -0.0324,0.0128 -0.22874,-0.0483 -0.26863,-0.0609 -0.11398,-0.0404 -0.22898,-0.0757 -0.34118,-0.12043 -0.1057,-0.0413 -0.20728,-0.0882 -0.30837,-0.13821 -0.0806,-0.0373 -0.14668,-0.0944 -0.22168,-0.13923 -0.0741,-0.0478 -0.13865,-0.1072 -0.20272,-0.16615 -0.0703,-0.0606 -0.13263,-0.12722 -0.19269,-0.19658 -0.0629,-0.085 -0.11051,-0.17924 -0.1605,-0.27121 -0.0683,-0.11918 -0.12033,-0.24524 -0.17047,-0.37175 -0.055,-0.11875 -0.0772,-0.24576 -0.0919,-0.37339 -0.0109,-0.10706 -0.0104,-0.21472 -0.0105,-0.32215 9e-5,-0.0964 2.2e-4,-0.19273 4.5e-4,-0.28909 -8.5e-4,-0.0917 -0.004,-0.18208 0.0159,-0.27215 0.0373,-0.13201 0.11586,-0.24513 0.20465,-0.35153 0.13158,-0.15705 0.27239,-0.30571 0.42261,-0.44727 0.20044,-0.18635 0.42367,-0.34723 0.65909,-0.49277 0.29688,-0.18447 0.59736,-0.36379 0.89528,-0.5468 0.319,-0.20865 0.63514,-0.42123 0.96026,-0.62157 0.29374,-0.17772 0.58663,-0.35654 0.8855,-0.52669 0.26021,-0.1508 0.5174,-0.30621 0.76741,-0.47138 0.23488,-0.15811 0.44399,-0.34555 0.66353,-0.52101 0.22872,-0.1761 0.42351,-0.3859 0.63177,-0.58197 0.19424,-0.18462 0.38019,-0.37728 0.55011,-0.58179 0.14761,-0.19395 0.29649,-0.38785 0.42286,-0.59467 0.11152,-0.19204 0.18896,-0.39846 0.28216,-0.59822 0.10594,-0.21661 0.18643,-0.44296 0.27231,-0.66688 0.0785,-0.1988 0.16308,-0.39561 0.23432,-0.59682 0.0724,-0.21345 0.12628,-0.43153 0.17466,-0.65064 0.0538,-0.2268 0.10119,-0.45498 0.1428,-0.684 0.0382,-0.21663 0.0486,-0.43599 0.0547,-0.65507 0.003,-0.17723 0.003,-0.35452 0.003,-0.53178 0.008,-0.16203 -0.009,-0.32233 -0.0359,-0.48211 -0.0218,-0.1306 -0.0337,-0.26198 -0.0648,-0.39108 -0.0334,-0.10632 -0.0699,-0.21056 -0.11724,-0.31216 -0.0346,-0.0678 -0.0718,-0.12219 -0.14891,-0.14882 -0.0833,-0.0187 -0.16884,-0.0208 -0.25126,0 -0.0596,0.0163 -0.11863,0.034 -0.17459,0.0597 -0.0161,0.007 -0.0632,0.0315 -0.0474,0.0237 0.0276,-0.0139 0.0554,-0.0276 0.083,-0.0414 -0.16753,0.092 -0.29187,0.23012 -0.41598,0.36649 -0.18268,0.1993 -0.33303,0.42102 -0.48086,0.64327 -0.16485,0.24142 -0.29643,0.49901 -0.41339,0.76302 -0.12177,0.28526 -0.22057,0.57788 -0.30858,0.87355 -0.16164,0.52971 -0.28162,1.06931 -0.3822,1.61166 -0.0832,0.45258 -0.13781,0.90913 -0.18707,1.36583 -0.0499,0.54662 -0.0499,1.09609 -0.0543,1.64431 0.003,0.45148 -0.003,0.90264 -0.0181,1.3539 -0.0197,0.31715 -0.0408,0.63414 -0.0518,0.95168 -0.007,0.22604 -0.008,0.45216 -0.009,0.67829 2.3e-4,0.16311 2.3e-4,0.32621 8.5e-4,0.48932 -0.002,0.0528 0.004,0.10571 -0.003,0.15828 -0.002,0.0115 0.003,0.031 -0.01,0.0339 -0.0505,0.0122 -0.1023,0.0195 -0.15345,0.0292 -0.014,-0.0985 -0.018,-0.19848 -0.0102,-0.29753 0.006,-0.12532 0.0437,-0.24282 0.0897,-0.35954 0.0685,-0.15559 0.15145,-0.30639 0.24094,-0.45246 0.099,-0.15061 0.22396,-0.2831 0.35455,-0.41013 0.13353,-0.14948 0.30637,-0.25742 0.47705,-0.36577 0.24698,-0.1509 0.50715,-0.28054 0.7814,-0.3817 0.16572,-0.0627 0.33786,-0.11038 0.51251,-0.14587 0.13311,-0.0238 0.26885,-0.0278 0.40398,-0.03 0.11268,0 0.22502,-0.006 0.33646,0.0114 0.0631,0.0181 0.119,0.0481 0.15823,0.098 0.0408,0.0641 0.024,0.12848 -0.007,0.19267 -0.0379,0.0719 -0.0936,0.12835 -0.15236,0.18531 -0.0502,0.0653 -0.48086,0.27386 -0.18666,0.12415 -0.13235,0.0908 -0.27889,0.13404 -0.43334,0.17387 -0.18224,0.0481 -0.36814,0.0809 -0.55595,0.10264 -0.21397,0.0149 -0.42757,0.0341 -0.64172,0.047 -0.19805,0.0172 -0.39619,0.002 -0.59405,-0.009 -0.16153,-0.008 -0.32304,-0.007 -0.48381,-0.0248 -0.0543,-0.006 -0.0556,-0.008 -0.10681,-0.008 -0.0109,2e-4 -0.042,0.007 -0.0325,0.002 0.047,-0.0232 0.094,-0.0511 0.14657,-0.0584 0.0211,-0.003 0.0363,0.021 0.0552,0.0302 0.0349,0.0168 0.0707,0.0318 0.10602,0.0477 0.4576,0.19587 0.93168,0.34997 1.41291,0.4861 0.42152,0.11102 0.85138,0.19353 1.28511,0.24958 0.22728,0.034 0.4559,0.0578 0.68569,0.0697 0.0731,0.002 0.0697,0.003 0.14105,0.005 0.0161,0 0.0603,-0.009 0.0483,0 -0.13303,0.11193 -0.17252,0.0804 -0.32149,0.0645 -0.62286,-0.0618 -1.24774,-0.0999 -1.8732,-0.12892 -0.76572,-0.0312 -1.53225,-0.0368 -2.29858,-0.0403 -0.73782,-0.013 -1.47481,0.0241 -2.21206,0.044 -0.92836,0.0236 -1.85501,0.0797 -2.78191,0.13085 -1.06279,0.0568 -2.12623,0.10477 -3.18987,0.14589 -1.05255,0.0393 -2.10581,0.048 -3.15904,0.0404 -0.84815,-0.002 -1.69555,-0.0294 -2.54212,-0.0755 -0.46141,-0.0204 -0.92206,-0.0526 -1.38319,-0.0777 -0.1935,-0.0105 -0.38726,-0.0157 -0.58107,-0.017 0.0668,-0.0273 0.12874,-0.0688 0.20023,-0.082 0.0506,-0.009 0.10256,0.0109 0.15384,0.0163 0.0766,0.008 0.15305,0.017 0.22973,0.0241 0.15426,0.0145 0.30848,0.0294 0.46305,0.0406 0.76199,0.055 0.90538,0.0506 1.75709,0.0804 2.2607,0.0472 4.52244,0.0175 6.78217,-0.0529 0.68517,-0.0213 1.37038,-0.0428 2.05512,-0.0735 0.73682,-0.033 1.47293,-0.0786 2.2094,-0.11783 2.27655,-0.143 4.54491,-0.38153 6.80572,-0.66573 1.2404,-0.1559 2.2642,-0.29856 3.48502,-0.50209 0.43711,-0.0729 0.872,-0.15687 1.30799,-0.2353 1.14919,-0.22868 2.28854,-0.51141 3.38526,-0.90789 0.3924,-0.14186 0.48035,-0.18528 0.8423,-0.3407 0.31347,-0.14104 0.60434,-0.32622 0.83097,-0.57438 0.0862,-0.1045 0.12902,-0.2244 0.14234,-0.35389 0.004,-0.0756 -0.0413,-0.12411 -0.0999,-0.16927 -0.11909,-0.0825 -0.25707,-0.13524 -0.39231,-0.18982 -0.13357,-0.065 -0.27033,-0.11717 -0.41472,-0.15646 -0.12055,-0.0294 -0.239,-0.0659 -0.35793,-0.10055 -0.10718,-0.0329 -0.21775,-0.0518 -0.32995,-0.0604 -0.12308,-0.006 -0.24641,-0.006 -0.36963,-0.006 -0.19284,-0.002 -0.38393,0.0329 -0.57277,0.066 -0.31548,0.0571 -0.62764,0.12736 -0.93907,0.2009 -0.39573,0.1209 -0.79713,0.22129 -1.20117,0.31457 -0.51899,0.11031 -1.03395,0.23572 -1.54712,0.36746 -0.66965,0.17924 -1.34065,0.35394 -2.0136,0.52214 -0.83616,0.19708 -1.67825,0.37081 -2.52336,0.53078 -1.08454,0.20953 -2.19162,0.25859 -3.29515,0.29459 -1.20552,0.036 -2.41229,-0.011 -3.61545,-0.0809 -1.11999,-0.0749 -2.23606,-0.18546 -3.34724,-0.33539 -0.84036,-0.12644 -1.67792,-0.26918 -2.5134,-0.42101 -0.68438,-0.1289 -1.3531,-0.31534 -2.00483,-0.54739 -0.34229,-0.1307 -0.6764,-0.28187 -0.98792,-0.46853 -0.17934,-0.10743 -0.22943,-0.14549 -0.39857,-0.26145 -0.27645,-0.19932 -0.54334,-0.41465 -0.74428,-0.68307 0,0 0.13366,-0.0734 0.13366,-0.0734 v 0 c 0.19832,0.26785 0.46327,0.48268 0.73766,0.68134 0.16835,0.11586 0.21818,0.15392 0.39689,0.26106 0.31049,0.18616 0.64365,0.33662 0.98457,0.46754 0.65027,0.23183 1.31748,0.41898 2.00054,0.54728 0.83403,0.15205 1.67006,0.29533 2.50874,0.42329 1.10974,0.1512 2.2246,0.26206 3.34339,0.33666 1.20289,0.0696 2.40933,0.11672 3.61455,0.08 1.10475,-0.0365 2.21293,-0.0885 3.29834,-0.29945 0.84604,-0.16102 1.68914,-0.33549 2.52614,-0.53376 0.67396,-0.16885 1.34587,-0.34448 2.01653,-0.52437 0.51399,-0.1323 1.03,-0.25744 1.5497,-0.36885 0.40449,-0.0938 0.80591,-0.19596 1.2026,-0.3157 0.31228,-0.0741 0.62553,-0.14409 0.94186,-0.20174 0.1901,-0.0331 0.38223,-0.068 0.57641,-0.0651 0.12368,-1.6e-4 0.24753,0 0.37105,0.006 0.11274,0.01 0.2236,0.0302 0.33131,0.0634 0.11902,0.0341 0.23731,0.0707 0.35773,0.10039 0.14464,0.0396 0.28073,0.0944 0.41494,0.15852 0.13662,0.0556 0.27646,0.10861 0.39688,0.1921 0.0617,0.0484 0.10889,0.10245 0.10682,0.18205 -0.0125,0.13226 -0.0543,0.25532 -0.1408,0.36307 -0.28926,0.32173 -0.69009,0.52582 -1.0863,0.71405 -0.35952,0.15282 -0.44531,0.1949 -0.83507,0.33409 -1.08981,0.38921 -2.22132,0.66577 -3.36227,0.88917 -0.43268,0.076 -0.86431,0.15739 -1.29803,0.22802 -1.21979,0.19861 -2.22564,0.33513 -3.46556,0.48814 -1.4111,0.17417 -3.07823,0.36023 -4.48824,0.4855 -0.77118,0.0685 -1.54406,0.11917 -2.3161,0.17875 -0.73836,0.0406 -1.47635,0.0876 -2.21509,0.1216 -0.68539,0.0315 -1.37131,0.0524 -2.05711,0.0748 -2.27103,0.0741 -4.54379,0.10916 -6.81613,0.0752 -0.35558,-0.01 -0.71131,-0.0153 -1.06675,-0.0287 -0.38758,-0.0145 -0.79478,-0.0415 -1.18369,-0.0733 -0.0776,-0.006 -0.15493,-0.0151 -0.23244,-0.0223 -0.0521,-0.005 -0.12151,0.0225 -0.15648,-0.0139 -0.0249,-0.026 0.0375,-0.0603 0.0563,-0.0904 0.19262,0.004 0.38525,0.008 0.57754,0.0202 0.45891,0.0272 0.91741,0.0601 1.37667,0.0821 0.84436,0.0482 1.68966,0.077 2.53573,0.079 1.05273,0.008 2.10552,0 3.15756,-0.0402 1.0639,-0.0414 2.12764,-0.0892 3.19067,-0.14674 0.9282,-0.052 1.85616,-0.109 2.78586,-0.13305 0.73792,-0.0214 1.47565,-0.0581 2.21418,-0.0449 0.76595,0.004 1.53205,0.011 2.2974,0.0418 0.62889,0.0294 1.25721,0.0674 1.88417,0.1226 0.0362,0.003 0.0723,0.007 0.10846,0.0103 0.0239,0.002 0.0809,-0.0143 0.0717,0.006 -0.0564,0.12706 -0.19786,0.085 -0.3029,0.0834 -0.22904,-0.0132 -0.45688,-0.0382 -0.6834,-0.0726 -0.43273,-0.058 -0.86154,-0.14213 -1.28199,-0.25425 -0.48287,-0.13744 -0.95898,-0.29186 -1.42047,-0.48392 -0.0362,-0.016 -0.0733,-0.0303 -0.10877,-0.0478 -0.0213,-0.0105 -0.0699,-0.0151 -0.0611,-0.036 0.055,-0.12963 0.15571,-0.10783 0.25992,-0.0956 0.16021,0.017 0.32131,0.016 0.48217,0.0248 0.19738,0.0103 0.39503,0.0248 0.59256,0.008 0.21399,-0.013 0.42754,-0.0319 0.64127,-0.0478 0.18779,-0.0226 0.37364,-0.0564 0.55575,-0.10523 0.0936,-0.025 0.0385,-0.01 0.12675,-0.0359 0.0171,-0.005 0.0344,-0.01 0.0514,-0.0151 0.0138,-0.005 0.0522,-0.0227 0.0408,-0.0143 -0.0295,0.0218 -0.0647,0.0362 -0.0963,0.0553 -0.0121,0.007 0.0251,-0.0133 0.0377,-0.0198 0.0563,-0.0317 0.11347,-0.0623 0.16896,-0.0953 0.0327,-0.0193 -0.0672,0.036 -0.1004,0.0545 -0.0106,0.006 0.0223,-0.0103 0.0327,-0.0166 0.02,-0.0124 0.0391,-0.0259 0.0579,-0.0398 0.0102,-0.008 0.0192,-0.0162 0.0288,-0.0243 0.0572,-0.0572 0.11653,-0.10948 0.15421,-0.18099 0.0317,-0.0579 0.0516,-0.11825 0.0142,-0.17823 -0.0373,-0.0464 -0.0915,-0.0737 -0.15106,-0.0887 -0.11063,-0.0162 -0.22238,-0.01 -0.33402,-0.01 -0.13445,0.002 -0.26953,0.007 -0.40176,0.0321 -0.17366,0.0362 -0.3448,0.084 -0.50965,0.14679 -0.20095,0.0749 -0.3829,0.15555 -0.51401,0.23879 -0.17003,0.108 -0.34451,0.21352 -0.47748,0.36269 -0.13052,0.12621 -0.25581,0.25735 -0.35568,0.40671 -0.0902,0.14495 -0.17233,0.29548 -0.24162,0.45 -0.0456,0.11556 -0.0852,0.23131 -0.0908,0.35555 -0.009,0.0975 -0.004,0.19596 0.009,0.29295 -0.0454,0.0318 -0.0922,0.0619 -0.13619,0.0955 -0.003,0.002 0.008,0.003 0.01,0.002 0.005,-0.006 0.006,-0.0153 0.008,-0.0233 0.0106,-0.0521 0.003,-0.10485 0.006,-0.15742 2.2e-4,-0.1633 -2e-4,-0.3266 4.5e-4,-0.48993 6.8e-4,-0.22652 0.002,-0.45308 0.01,-0.67952 0.0115,-0.31789 0.0328,-0.63523 0.0539,-0.95268 0.0162,-0.45172 0.0241,-0.90337 0.0221,-1.35539 0.005,-0.54797 0.005,-1.09731 0.0503,-1.64384 0.0503,-0.45758 0.10543,-0.91508 0.19023,-1.36839 0.10134,-0.54137 0.22105,-1.08026 0.37636,-1.61055 0.0874,-0.29602 0.18576,-0.58896 0.3068,-0.87471 0.11649,-0.26479 0.24782,-0.52301 0.41247,-0.7652 0.14748,-0.22243 0.29667,-0.44479 0.47858,-0.64468 0.12339,-0.13642 0.24535,-0.27666 0.41191,-0.36957 0.13381,-0.0746 0.25926,-0.15248 0.41226,-0.18549 0.0849,-0.0179 0.17342,-0.0157 0.2575,0.006 0.0786,0.0313 0.1191,0.0881 0.1547,0.15912 0.0474,0.10257 0.0844,0.20762 0.11821,0.31478 0.0317,0.12943 0.0432,0.26127 0.0646,0.39233 0.0268,0.16049 0.0444,0.32139 0.0368,0.48421 4.5e-4,0.1775 4.5e-4,0.35504 -0.003,0.53254 -0.006,0.21976 -0.0164,0.43982 -0.0543,0.65719 -0.0413,0.22918 -0.0887,0.45751 -0.14249,0.68441 -0.0479,0.21955 -0.10193,0.43788 -0.17344,0.65197 -0.0705,0.20159 -0.15545,0.3985 -0.23444,0.59728 -0.0864,0.22404 -0.16659,0.45079 -0.27212,0.66787 -0.0933,0.20001 -0.17055,0.40675 -0.28122,0.5995 -0.12565,0.20778 -0.27548,0.40167 -0.42234,0.5967 -0.16933,0.20557 -0.35609,0.39836 -0.55017,0.58377 -0.20894,0.19556 -0.40272,0.40636 -0.63107,0.58295 -0.22011,0.17523 -0.4289,0.36328 -0.66334,0.52236 -0.24991,0.16585 -0.50735,0.32144 -0.76773,0.47258 -0.29937,0.1699 -0.59247,0.34887 -0.88659,0.52651 -0.32545,0.19975 -0.64169,0.41211 -0.96004,0.62152 -0.29753,0.18298 -0.59778,0.36199 -0.89428,0.54642 -0.23528,0.1443 -0.45822,0.30398 -0.65856,0.48934 -0.14984,0.14115 -0.29132,0.28829 -0.42216,0.4453 -0.0889,0.10411 -0.16718,0.21526 -0.20622,0.34483 -0.021,0.089 -0.0185,0.1783 -0.017,0.26918 -2.2e-4,0.0965 -8.5e-4,0.1929 -8.5e-4,0.28934 1.7e-4,0.10702 -2.3e-4,0.21419 0.01,0.32089 0.0137,0.12661 0.0352,0.25253 0.0899,0.37022 0.0493,0.12616 0.10118,0.25172 0.16952,0.37022 0.0499,0.0908 0.0975,0.18391 0.15946,0.26819 0.0601,0.0686 0.12208,0.13489 0.19178,0.19517 0.0635,0.0583 0.12776,0.11653 0.20152,0.16338 0.0738,0.0458 0.14039,0.10107 0.22022,0.13856 0.10055,0.0503 0.2026,0.0954 0.30767,0.13709 0.11172,0.0448 0.22673,0.0794 0.34036,0.11954 0.0703,0.0217 0.14764,0.0487 0.22201,0.0541 0.0136,0 0.0506,-0.0111 0.0409,-0.002 -0.0298,0.0276 -0.0709,0.0419 -0.10645,0.0629 0.0769,-0.0591 0.0916,-0.15497 0.11429,-0.24119 0.0448,-0.18103 0.0892,-0.36199 0.14004,-0.54174 0.10751,-0.43727 0.19324,-0.87898 0.25928,-1.32335 0.0637,-0.44588 0.11709,-0.893 0.17027,-1.34006 0.0628,-0.48131 0.13066,-0.96215 0.17734,-1.44514 0.0516,-0.49913 0.0739,-1.00012 0.11756,-1.49981 0.0498,-0.43201 0.11545,-0.86209 0.19724,-1.28987 0.0724,-0.39026 0.1197,-0.784 0.18369,-1.17551 0.0532,-0.32099 0.10919,-0.64156 0.16431,-0.96229 0.0362,-0.23553 0.0592,-0.47253 0.0999,-0.70743 0.006,-0.0278 0.0121,-0.0556 0.018,-0.0833 0.005,-0.0229 -0.003,-0.0512 0.014,-0.0686 0.19796,-0.20861 0.15819,-0.14994 0.15042,-0.0658 -0.008,0.0773 -0.0224,0.15335 -0.04,0.22922 -0.01,0.0974 -0.0286,0.19333 -0.0501,0.28902 -0.0185,0.11926 -0.0517,0.23312 -0.0994,0.3452 -0.045,0.12158 -0.0884,0.24379 -0.12848,0.36688 -0.0414,0.13126 -0.0998,0.25625 -0.15441,0.38307 -0.0658,0.16334 -0.14149,0.3207 -0.23102,0.47417 -0.0986,0.18508 -0.19122,0.37531 -0.32093,0.54361 -0.13025,0.18467 -0.28171,0.35363 -0.44107,0.51707 -0.19789,0.18768 -0.39973,0.37208 -0.60847,0.54923 -0.26561,0.20577 -0.54341,0.39783 -0.84413,0.55729 -0.24646,0.12961 -0.50251,0.24257 -0.76501,0.34105 -0.25125,0.0897 -0.50767,0.16522 -0.76684,0.23241 -0.19827,0.054 -0.39708,0.10565 -0.60067,0.13957 -0.19067,0.0317 -0.38335,0.06 -0.57775,0.047 -0.10291,-0.007 -0.21403,-0.0107 -0.29835,-0.0731 -0.0465,-0.0541 -0.0302,-0.11738 -0.0132,-0.18044 0.026,-0.0811 0.0549,-0.16153 0.0866,-0.24076 0.0571,-0.12111 0.10479,-0.24446 0.14713,-0.3708 0.0736,-0.16628 0.15182,-0.33076 0.22247,-0.49818 0.082,-0.19323 0.17919,-0.37947 0.27675,-0.56619 0.0893,-0.18199 0.18014,-0.36361 0.25473,-0.55146 0.0725,-0.16545 0.15,-0.32917 0.2099,-0.49917 0.0434,-0.12193 0.0781,-0.24644 0.12545,-0.36717 0.0242,-0.0772 -0.035,-0.0172 0.13089,-0.10963 0.0453,-0.0252 -0.0891,0.0709 -0.0521,0.056 -0.0389,0.046 -0.0944,0.0781 -0.13998,0.11794 -0.0322,0.0175 -0.058,0.0412 -0.089,0.0592 -0.0785,0.0458 -0.15597,0.0891 -0.23952,0.12499 -0.0767,0.03 -0.15036,0.0686 -0.23298,0.0834 -0.0818,0.0118 -0.16302,0.0275 -0.24631,0.0219 -0.10271,0 -0.20542,0 -0.30813,0 -0.14051,0 -0.28133,-0.002 -0.42123,-0.0149 -0.18714,-0.0216 -0.37123,-0.0579 -0.55103,-0.11157 -0.19903,-0.0626 -0.3955,-0.13309 -0.58606,-0.21575 -0.15816,-0.0648 -0.31417,-0.13564 -0.45431,-0.23095 -0.10441,-0.0667 -0.204,-0.14077 -0.31817,-0.19291 -0.0101,-0.003 -0.0201,-0.006 -0.0305,-0.009 -0.008,-0.002 -0.031,0.003 -0.0247,-0.002 0.0349,-0.0271 0.0766,-0.0456 0.11481,-0.0683 -0.006,0.005 -0.0132,0.009 -0.0175,0.0153 -0.0111,0.0162 -0.0142,0.0394 -0.0181,0.0575 -0.0156,0.0684 -0.014,0.13696 -0.0193,0.20652 -0.009,0.0691 -0.0254,0.13617 -0.0507,0.20176 -0.019,0.0929 -0.0537,0.18208 -0.0677,0.27567 -0.008,0.10916 -0.0234,0.21777 -0.0558,0.32327 -0.0359,0.12906 -0.0628,0.26038 -0.0916,0.39095 -0.0148,0.089 -0.0273,0.17915 -0.0564,0.2653 -0.0256,0.0669 -0.0544,0.13266 -0.0715,0.20218 -0.0186,0.0632 -0.0202,0.13108 -0.0577,0.18899 -0.0333,0.0607 -0.0569,0.12663 -0.10359,0.18054 -0.0423,0.0495 -0.0714,0.10761 -0.11912,0.15342 -0.039,0.0408 -0.0693,0.0872 -0.11562,0.1216 -0.0452,0.0337 -0.0887,0.0711 -0.12622,0.11197 -0.0397,0.0574 -0.0988,0.0988 -0.14716,0.14963 -0.059,0.0496 -0.10932,0.10635 -0.16914,0.15511 -0.0554,0.0574 -0.11495,0.11023 -0.16048,0.17551 -0.069,0.0935 -0.14391,0.18283 -0.22231,0.26962 0,0 -0.14647,0.0581 -0.14647,0.0581 z"
             id="path4557"
             style="fill:url(#linearGradient1550);fill-opacity:1;stroke:#ffffff;stroke-width:1.23273346;stroke-miterlimit:4;stroke-dasharray:none;stroke-opacity:1" />
          <path
             inkscape:connector-curvature="0"
             d="m -393.56484,447.12989 c -0.16095,-0.10094 -0.30105,-0.22654 -0.44268,-0.34931 -0.11634,-0.0958 -0.22428,-0.20136 -0.31821,-0.31669 -0.0807,-0.0876 -0.12155,-0.19279 -0.15744,-0.30117 -0.0433,-0.11707 -0.0474,-0.23349 -0.0194,-0.35346 0.0567,-0.19225 0.20611,-0.33591 0.36166,-0.46446 0.30448,-0.23538 0.66587,-0.38032 1.03371,-0.50458 0.45641,-0.1276 0.92846,-0.19409 1.40322,-0.2194 0.33341,-0.0179 0.66548,0.012 0.9902,0.0816 0.23582,0.0629 0.4504,0.18014 0.65192,0.30824 0.1327,0.0887 0.23581,0.20428 0.31791,0.33471 0.068,0.11109 0.0986,0.23121 0.11585,0.35677 0.0194,0.14007 -0.002,0.25853 -0.0597,0.38764 -0.0622,0.14207 -0.17538,0.25166 -0.2829,0.3642 -0.10665,0.10294 -0.23829,0.17767 -0.36738,0.25307 -0.15551,0.0844 -0.31173,0.16851 -0.47295,0.2432 -0.0863,0.0322 -0.16943,0.0717 -0.25722,0.10044 -0.0709,0.0179 -0.14452,0.0307 -0.21156,0.0595 -0.0809,0.0341 -0.16514,0.0559 -0.25253,0.0699 -0.0615,0.0162 -0.12403,0.0272 -0.18715,0.0361 0,0 0.12684,-0.0888 0.12684,-0.0888 v 0 c 0.063,-0.009 0.12515,-0.0219 0.18704,-0.0364 0.0869,-0.0152 0.17025,-0.0389 0.25091,-0.0729 0.0688,-0.0248 0.14085,-0.0398 0.21167,-0.0585 0.0868,-0.0302 0.17036,-0.0679 0.25566,-0.1015 0.0726,-0.0343 0.14407,-0.0704 0.21536,-0.10693 0.0203,-0.0105 0.0795,-0.0441 0.0611,-0.031 -0.0226,0.0162 -0.0493,0.0268 -0.074,0.0402 0.1288,-0.0753 0.26085,-0.14847 0.36923,-0.24928 0.10649,-0.11203 0.22198,-0.21887 0.28472,-0.3598 0.0619,-0.13124 0.0808,-0.23711 0.0632,-0.38052 -0.0165,-0.12371 -0.0462,-0.24192 -0.11268,-0.3516 -0.0807,-0.12858 -0.18258,-0.24225 -0.31296,-0.32995 -0.20011,-0.12698 -0.41289,-0.2434 -0.64746,-0.30453 -0.32312,-0.0686 -0.65346,-0.0979 -0.98505,-0.0801 -0.47435,0.026 -0.94649,0.092 -1.40148,0.22333 -0.27284,0.093 -0.5471,0.18252 -0.77021,0.36264 -0.15471,0.1255 -0.30396,0.26609 -0.36288,0.45494 -0.0296,0.11762 -0.0267,0.23116 0.016,0.34645 0.0355,0.10683 0.0746,0.21054 0.15459,0.29676 0.093,0.11484 0.20015,0.21987 0.31549,0.31526 0.14124,0.12264 0.28069,0.24875 0.44369,0.34648 0,0 -0.13414,0.0796 -0.13414,0.0796 z"
             id="path4559"
             style="fill:url(#linearGradient1540);stroke:#ffffff;stroke-width:1.23300778;stroke-miterlimit:4;stroke-dasharray:none;opacity:1;fill-opacity:1;stroke-opacity:1" />
        </g>
      </g>
      <text
         id="text5063"
         y="72.994652"
         x="318.60202"
         style="font-style:normal;font-variant:normal;font-weight:normal;font-stretch:normal;font-size:1.41111112px;line-height:1.25;font-family:'Franklin Gothic Heavy';-inkscape-font-specification:'Franklin Gothic Heavy, ';letter-spacing:0px;word-spacing:0px;fill:#000000;fill-opacity:1;stroke:none;stroke-width:0.26458335"
         xml:space="preserve"><tspan
           style="font-size:1.41111112px;stroke-width:0.26458335"
           y="74.281044"
           x="318.60202"
           id="tspan5061"
           sodipodi:role="line" /></text>
      <text
         id="text6934"
         y="91.002907"
         x="-15.497025"
         style="font-style:normal;font-variant:normal;font-weight:normal;font-stretch:normal;font-size:5.64444447px;line-height:1.25;font-family:'Franklin Gothic Heavy';-inkscape-font-specification:'Franklin Gothic Heavy, ';letter-spacing:0px;word-spacing:0px;fill:#000000;fill-opacity:1;stroke:none;stroke-width:0.26458335"
         xml:space="preserve"><tspan
           style="font-size:5.64444447px;stroke-width:0.26458335"
           y="96.148468"
           x="-15.497025"
           id="tspan6932"
           sodipodi:role="line" /></text>
      <text
         id="text6938"
         y="89.113014"
         x="-13.98512"
         style="font-style:normal;font-variant:normal;font-weight:normal;font-stretch:normal;font-size:7.05555582px;line-height:1.25;font-family:'Franklin Gothic Heavy';-inkscape-font-specification:'Franklin Gothic Heavy, ';letter-spacing:0px;word-spacing:0px;fill:#000000;fill-opacity:1;stroke:none;stroke-width:0.26458335"
         xml:space="preserve"><tspan
           style="font-size:7.05555582px;stroke-width:0.26458335"
           y="95.544968"
           x="-13.98512"
           id="tspan6936"
           sodipodi:role="line" /></text>
      <text
         id="text6978"
         y="252.847"
         x="109.63396"
         style="font-style:normal;font-variant:normal;font-weight:normal;font-stretch:normal;font-size:7.05555534px;line-height:1.25;font-family:'Franklin Gothic Heavy';-inkscape-font-specification:'Franklin Gothic Heavy, ';letter-spacing:0px;word-spacing:0px;fill:#000000;fill-opacity:1;stroke:none;stroke-width:0.26458335"
         xml:space="preserve"><tspan
           style="stroke-width:0.26458335"
           y="259.27896"
           x="109.63396"
           id="tspan6976"
           sodipodi:role="line" /></text>
    </g>
  </g>
  <style
     type="text/css"
     id="style4871">
	.st0{fill:#FFFFFF;}
</style>
  <style
     type="text/css"
     id="style4923">
	.st0{fill:none;}
	.st1{fill-rule:evenodd;clip-rule:evenodd;}
	.st2{fill-rule:evenodd;clip-rule:evenodd;fill:#FFFFFF;}
	.st3{opacity:0.65;fill-rule:evenodd;clip-rule:evenodd;fill:#FFFFFF;}
	.st4{opacity:0.11;fill-rule:evenodd;clip-rule:evenodd;fill:#FFFFFF;}
</style>
</svg>
